<svg width="15" height="15" viewBox="0 0 15 15" fill="none" xmlns="http://www.w3.org/2000/svg">
<path d="M11.0968 8.74999C11.4696 8.75032 11.8269 8.89862 12.0904 9.16231C12.3538 9.426 12.5018 9.78349 12.5018 10.1562V10.73C12.5018 11.0881 12.3899 11.4373 12.1818 11.7287C11.2156 13.0812 9.63807 13.7506 7.50057 13.7506C5.36182 13.7506 3.78494 13.0806 2.82119 11.7281C2.61377 11.4369 2.50235 11.0882 2.50244 10.7306V10.1556C2.50261 9.78287 2.65075 9.42544 2.91432 9.16187C3.17789 8.8983 3.53532 8.75015 3.90807 8.74999H11.0968ZM7.49994 1.25311C7.91032 1.25311 8.31668 1.33394 8.69583 1.49099C9.07497 1.64804 9.41947 1.87822 9.70965 2.1684C9.99983 2.45859 10.23 2.80308 10.3871 3.18223C10.5441 3.56137 10.6249 3.96773 10.6249 4.37811C10.6249 4.78849 10.5441 5.19486 10.3871 5.574C10.23 5.95314 9.99983 6.29764 9.70965 6.58782C9.41947 6.878 9.07497 7.10819 8.69583 7.26524C8.31668 7.42228 7.91032 7.50311 7.49994 7.50311C6.67114 7.50311 5.87628 7.17387 5.29023 6.58782C4.70418 6.00177 4.37494 5.20691 4.37494 4.37811C4.37494 3.54931 4.70418 2.75446 5.29023 2.1684C5.87628 1.58235 6.67114 1.25311 7.49994 1.25311Z" fill="#F4F2EE"/>
</svg>
