<svg width="14" height="14" viewBox="0 0 14 14" fill="none" xmlns="http://www.w3.org/2000/svg">
<path fill-rule="evenodd" clip-rule="evenodd" d="M4.81261 3.50877V2.91669C4.81261 2.33653 5.04308 1.78013 5.45332 1.36989C5.86355 0.959655 6.41995 0.729187 7.00011 0.729187C7.58028 0.729187 8.13667 0.959655 8.54691 1.36989C8.95715 1.78013 9.18761 2.33653 9.18761 2.91669V3.50877C9.93836 3.53152 10.398 3.61202 10.7486 3.9031C11.2345 4.30677 11.3629 4.98927 11.6189 6.35485L12.0564 8.68819C12.4164 10.6085 12.596 11.5687 12.0716 12.201C11.5466 12.8334 10.5695 12.8334 8.61595 12.8334H5.38428C3.43011 12.8334 2.45361 12.8334 1.92861 12.201C1.40361 11.5687 1.58445 10.6085 1.94378 8.68819L2.38128 6.35485C2.63795 4.98985 2.7657 4.30677 3.25161 3.9031C3.6022 3.61202 4.06186 3.53152 4.81261 3.50877ZM5.68761 2.91669C5.68761 2.56859 5.8259 2.23475 6.07204 1.98861C6.31818 1.74247 6.65202 1.60419 7.00011 1.60419C7.34821 1.60419 7.68205 1.74247 7.92819 1.98861C8.17433 2.23475 8.31261 2.56859 8.31261 2.91669V3.50002H5.68761V2.91669Z" fill="#F4F2EE"/>
</svg>
